<svg width="55" height="40" viewBox="0 0 55 40" fill="none" xmlns="http://www.w3.org/2000/svg">
<path d="M34.6554 0.00199121C34.6355 0.846911 34.6928 1.70396 34.6564 2.54887C34.5473 5.01341 34.4281 7.58041 34.3458 10.1553C35.5465 7.75727 37.111 4.9837 37.7101 4.30863C41.117 0.468466 48.8893 -0.0349065 52.0265 4.67289C52.2434 4.99856 53.8681 8.00455 53.9357 8.20414C54.1799 8.94058 53.8553 9.96396 54.3019 10.6299L53.4777 15.7364L53.4796 15.7412C51.7352 15.5396 50.0906 16.4806 48.3771 16.7139L47.4171 11.794C46.5549 10.2822 46.1752 7.28346 44.3615 9.29105C44.0421 9.64418 42.9219 11.3691 42.6486 11.8672C42.3514 12.4068 41.1738 14.9368 41.1173 15.4327L42.3253 20.7696C43.5193 22.6702 44.6844 25.6044 46.8263 25.4756C47.4315 25.4391 47.9657 24.6148 48.3722 24.8409C49.3256 25.8301 49.683 27.5367 50.3829 28.7422C50.748 29.3698 52.8157 31.7532 52.7394 32.3536C50.8145 35.586 48.4324 36.879 45.3683 37.1221C40.5815 37.5037 37.6512 35.2099 34.7091 30.1934C34.6452 30.0844 34.584 29.9704 34.5226 29.8536C33.2678 31.0343 32.2031 33.0273 30.9933 34.1241C30.2839 34.7683 27.8244 36.6386 27.0822 36.9307C24.0891 38.111 21.4212 36.7218 18.5773 35.9219C17.7071 36.0297 16.8206 35.8805 15.9855 36.0176C13.1292 36.4891 10.0817 37.374 7.19446 37.9063C5.49389 38.2198 3.65817 38.0347 2.01771 39.0381C1.25397 36.773 0.683199 34.3812 0.648566 31.8682C2.36204 29.4112 4.64079 28.2617 6.90833 27.0586C7.1853 26.9106 7.40067 27.1993 7.30775 26.5118C5.10754 27.0076 3.00855 27.9721 1.29505 29.9141C1.6376 28.1497 0.701563 26.5211 0.73255 24.9317C0.754507 23.7287 1.34805 22.6302 1.46107 21.5098C1.59231 20.2071 1.31927 19.0672 1.33021 17.8106C1.43984 17.5651 3.85302 16.1491 4.24622 15.9903C5.00082 15.6865 7.43074 14.9602 8.13099 14.9746C9.13539 14.9941 9.9855 16.0464 10.8331 16.5909C11.3551 16.9263 13.2698 17.5677 13.2902 18.3135C13.3047 18.8555 12.7778 21.371 12.6046 22.0274C12.1494 23.7583 11.2591 25.2807 10.7775 26.9942L15.6066 26.0655C14.9482 19.7508 15.1164 13.595 15.5177 7.17191C15.5761 6.25018 15.968 0.818799 16.1466 0.478554C16.5386 -0.272406 19.5607 0.945357 20.1622 1.70609C20.8621 2.59079 21.3976 5.18831 21.5089 6.47172C22.2089 14.5483 22.689 23.4518 23.9523 31.4092C24.0763 32.1897 24.6194 34.9283 25.4269 34.7217C25.7695 34.5078 25.9207 34.0532 26.0519 33.6133C28.746 24.5793 28.1281 12.9278 30.8732 3.82816C31.5674 1.52498 32.7573 0.202116 34.6554 0.00199121ZM5.39857 3.80896e-05C7.90319 0.0267736 10.4538 1.77907 12.962 1.72074C13.0459 2.53246 12.7901 3.24695 12.5441 3.95902C11.4376 7.15982 6.16113 12.7376 3.83314 14.7041C3.24622 15.1999 1.94821 15.7763 1.56165 16.294C1.12963 16.87 0.996533 18.2678 0.385871 18.7344C0.571804 17.1643 0.166731 15.4797 0.188605 13.9922C0.210514 12.568 0.598759 11.2455 0.571418 9.60746C0.536733 7.41288 0.0157293 4.76637 0.00110507 2.56937C-0.000717804 2.2048 -0.0186814 1.8762 0.196418 1.59183C0.649223 0.99395 4.61443 -0.00711161 5.39857 3.80896e-05ZM34.6574 0.00199121H34.6554L34.6564 3.80896e-05L34.6574 0.00199121Z" fill="#C5008A"/>
</svg>
